<svg width="6" height="10" viewBox="0 0 6 10" fill="none" xmlns="http://www.w3.org/2000/svg">
<g clip-path="url(#clip0)">
<path d="M5.70711 0.292893C6.06759 0.653377 6.09532 1.22061 5.7903 1.6129L5.70711 1.70711L2.415 5L5.70711 8.29289C6.06759 8.65338 6.09532 9.22061 5.7903 9.6129L5.70711 9.70711C5.34662 10.0676 4.77939 10.0953 4.3871 9.7903L4.29289 9.70711L0.29289 5.70711C0.142689 5.55691 0.0502542 5.37082 0.0155923 5.17644L0.00172974 5.05904L0.00172975 4.94096C0.0132838 4.74438 0.0826057 4.55055 0.209699 4.3871L0.29289 4.29289L4.29289 0.292893C4.68341 -0.0976311 5.31658 -0.097631 5.70711 0.292893Z" fill="white"/>
</g>
<defs>
<clipPath id="clip0">
<rect width="10" height="6" fill="white" transform="translate(6) rotate(90)"/>
</clipPath>
</defs>
</svg>
