<svg width="24" height="24" viewBox="0 0 24 24" fill="none" xmlns="http://www.w3.org/2000/svg">
<g clip-path="url(#clip0)">
<path d="M23.9466 9.2137C23.8182 8.81865 23.4768 8.53075 23.0658 8.4711L16.0957 7.45841L12.9785 1.14188C12.7947 0.769454 12.4154 0.53363 12.0001 0.53363C11.5847 0.53363 11.2054 0.769454 11.0217 1.14188L7.90467 7.45834L0.934354 8.47103C0.523373 8.53075 0.181858 8.81865 0.0535447 9.21363C-0.0747687 9.60868 0.0322319 10.0423 0.329666 10.3322L5.37339 15.2481L4.18227 22.1908C4.11208 22.6002 4.28032 23.0139 4.61631 23.258C4.80638 23.3961 5.03151 23.4664 5.25773 23.4664C5.43136 23.4664 5.60572 23.425 5.76539 23.3411L12 20.0635L18.2346 23.3411C18.3952 23.4255 18.5711 23.4657 18.7453 23.4664C19.3472 23.4655 19.8348 22.9774 19.8348 22.3753C19.8348 22.2915 19.8254 22.2098 19.8075 22.1315L18.6267 15.2481L23.6704 10.3322C23.9679 10.0423 24.0749 9.60868 23.9466 9.2137Z" fill="#F7CB4E"/>
</g>
<defs>
<clipPath id="clip0">
<rect width="24" height="24" fill="white"/>
</clipPath>
</defs>
</svg>
